<svg width="34" height="34" viewBox="0 0 34 34" fill="none" xmlns="http://www.w3.org/2000/svg">
<path d="M30.9643 0H3.03571C1.35914 0 0 1.35914 0 3.03571V30.9643C0 32.6409 1.35914 34 3.03571 34H30.9643C32.6409 34 34 32.6409 34 30.9643V3.03571C34 1.35914 32.6409 0 30.9643 0Z" fill="#5B1E49"/>
<path d="M6.35205 9.15527H12.0349C13.0873 9.15527 14.0425 9.33335 14.9006 9.68956C15.7587 10.0458 16.4873 10.5801 17.0863 11.2924C17.7016 11.9886 18.1711 12.871 18.4949 13.9396C18.8187 14.9919 18.9806 16.2224 18.9806 17.631C18.9806 19.0396 18.8187 20.2781 18.4949 21.3467C18.1711 22.3991 17.7016 23.2815 17.0863 23.9938C16.4873 24.6901 15.7587 25.2162 14.9006 25.5724C14.0425 25.9286 13.0873 26.1067 12.0349 26.1067H6.35205V9.15527ZM12.0349 24.3096C12.7311 24.3096 13.3706 24.1962 13.9535 23.9696C14.5363 23.7267 15.0383 23.3786 15.4592 22.9253C15.8801 22.4719 16.204 21.9215 16.4306 21.2738C16.6735 20.6101 16.7949 19.8572 16.7949 19.0153V16.2467C16.7949 15.4048 16.6735 14.6601 16.4306 14.0124C16.204 13.3486 15.8801 12.7901 15.4592 12.3367C15.0383 11.8833 14.5363 11.5433 13.9535 11.3167C13.3706 11.0738 12.7311 10.9524 12.0349 10.9524H8.39205V24.3096H12.0349ZM19.7796 26.1067L26.2638 10.9038H19.0267V14.061H17.2053V9.15527H28.3281V10.9524L21.9653 26.1067H19.7796Z" fill="white"/>
</svg>
